<mxfile host="Electron" agent="Mozilla/5.0 (Macintosh; Intel Mac OS X 10_15_7) AppleWebKit/537.36 (KHTML, like Gecko) draw.io/28.0.4 Chrome/138.0.7204.97 Electron/37.2.1 Safari/537.36" version="28.0.4">
  <diagram name="Page-1" id="jQH-bKpSncPVBrTW7zxj">
    <mxGraphModel dx="1826" dy="656" grid="1" gridSize="10" guides="1" tooltips="1" connect="1" arrows="1" fold="1" page="1" pageScale="1" pageWidth="850" pageHeight="1100" math="0" shadow="0">
      <root>
        <mxCell id="0" />
        <mxCell id="1" parent="0" />
        <mxCell id="nfJyVWnPt5pCBitvUno0-1" value="" style="rounded=0;whiteSpace=wrap;html=1;fillColor=none;dashed=1;" parent="1" vertex="1">
          <mxGeometry x="50" y="190" width="130" height="430" as="geometry" />
        </mxCell>
        <mxCell id="nfJyVWnPt5pCBitvUno0-2" value="&lt;b&gt;Source&lt;/b&gt;" style="rounded=1;whiteSpace=wrap;html=1;strokeColor=none;fillColor=default;fontSize=16;" parent="1" vertex="1">
          <mxGeometry x="70" y="180" width="80" height="30" as="geometry" />
        </mxCell>
        <mxCell id="nfJyVWnPt5pCBitvUno0-14" style="edgeStyle=orthogonalEdgeStyle;rounded=0;orthogonalLoop=1;jettySize=auto;html=1;entryX=0;entryY=0.5;entryDx=0;entryDy=0;" parent="1" source="nfJyVWnPt5pCBitvUno0-3" target="nfJyVWnPt5pCBitvUno0-12" edge="1">
          <mxGeometry relative="1" as="geometry" />
        </mxCell>
        <mxCell id="nfJyVWnPt5pCBitvUno0-16" style="edgeStyle=orthogonalEdgeStyle;rounded=0;orthogonalLoop=1;jettySize=auto;html=1;entryX=0;entryY=0.5;entryDx=0;entryDy=0;" parent="1" source="nfJyVWnPt5pCBitvUno0-3" target="nfJyVWnPt5pCBitvUno0-10" edge="1">
          <mxGeometry relative="1" as="geometry" />
        </mxCell>
        <mxCell id="nfJyVWnPt5pCBitvUno0-18" style="edgeStyle=orthogonalEdgeStyle;rounded=0;orthogonalLoop=1;jettySize=auto;html=1;entryX=0;entryY=0.5;entryDx=0;entryDy=0;" parent="1" source="nfJyVWnPt5pCBitvUno0-3" target="nfJyVWnPt5pCBitvUno0-13" edge="1">
          <mxGeometry relative="1" as="geometry" />
        </mxCell>
        <mxCell id="nfJyVWnPt5pCBitvUno0-3" value="CRM" style="image;aspect=fixed;html=1;points=[];align=center;fontSize=12;image=img/lib/azure2/general/Folder_Blank.svg;fontStyle=1" parent="1" vertex="1">
          <mxGeometry x="79.19" y="290" width="60.81" height="49.35" as="geometry" />
        </mxCell>
        <mxCell id="nfJyVWnPt5pCBitvUno0-23" style="edgeStyle=orthogonalEdgeStyle;rounded=0;orthogonalLoop=1;jettySize=auto;html=1;" parent="1" source="nfJyVWnPt5pCBitvUno0-4" target="nfJyVWnPt5pCBitvUno0-21" edge="1">
          <mxGeometry relative="1" as="geometry" />
        </mxCell>
        <mxCell id="nfJyVWnPt5pCBitvUno0-24" style="edgeStyle=orthogonalEdgeStyle;rounded=0;orthogonalLoop=1;jettySize=auto;html=1;entryX=0;entryY=0.75;entryDx=0;entryDy=0;" parent="1" source="nfJyVWnPt5pCBitvUno0-4" target="nfJyVWnPt5pCBitvUno0-20" edge="1">
          <mxGeometry relative="1" as="geometry">
            <Array as="points">
              <mxPoint x="190" y="505" />
              <mxPoint x="190" y="463" />
            </Array>
          </mxGeometry>
        </mxCell>
        <mxCell id="nfJyVWnPt5pCBitvUno0-25" style="edgeStyle=orthogonalEdgeStyle;rounded=0;orthogonalLoop=1;jettySize=auto;html=1;entryX=0;entryY=0.5;entryDx=0;entryDy=0;" parent="1" source="nfJyVWnPt5pCBitvUno0-4" target="nfJyVWnPt5pCBitvUno0-22" edge="1">
          <mxGeometry relative="1" as="geometry">
            <Array as="points">
              <mxPoint x="190" y="505" />
              <mxPoint x="190" y="555" />
            </Array>
          </mxGeometry>
        </mxCell>
        <mxCell id="nfJyVWnPt5pCBitvUno0-4" value="ERP" style="image;aspect=fixed;html=1;points=[];align=center;fontSize=12;image=img/lib/azure2/general/Folder_Blank.svg;fontStyle=1" parent="1" vertex="1">
          <mxGeometry x="84.19" y="480" width="61.61" height="50" as="geometry" />
        </mxCell>
        <mxCell id="nfJyVWnPt5pCBitvUno0-7" value="" style="rounded=0;whiteSpace=wrap;html=1;fillColor=none;strokeColor=#d79b00;" parent="1" vertex="1">
          <mxGeometry x="220" y="220" width="150" height="400" as="geometry" />
        </mxCell>
        <mxCell id="nfJyVWnPt5pCBitvUno0-8" value="Bronze Layer" style="rounded=1;whiteSpace=wrap;html=1;fillColor=#ffe6cc;strokeColor=#d79b00;fontStyle=1;fontSize=14;" parent="1" vertex="1">
          <mxGeometry x="220" y="180" width="150" height="30" as="geometry" />
        </mxCell>
        <mxCell id="GvGXXPzVbGdxFzTRtFg9-24" style="edgeStyle=orthogonalEdgeStyle;rounded=0;orthogonalLoop=1;jettySize=auto;html=1;entryX=0;entryY=0.5;entryDx=0;entryDy=0;" edge="1" parent="1" source="nfJyVWnPt5pCBitvUno0-10" target="GvGXXPzVbGdxFzTRtFg9-13">
          <mxGeometry relative="1" as="geometry" />
        </mxCell>
        <mxCell id="nfJyVWnPt5pCBitvUno0-10" value="&lt;span style=&quot;font-weight: normal;&quot;&gt;crm_cust_info&lt;/span&gt;" style="rounded=1;whiteSpace=wrap;html=1;fillColor=#ffe6cc;strokeColor=#d79b00;fontStyle=1;fontSize=12;" parent="1" vertex="1">
          <mxGeometry x="235" y="250" width="120" height="30" as="geometry" />
        </mxCell>
        <mxCell id="GvGXXPzVbGdxFzTRtFg9-25" style="edgeStyle=orthogonalEdgeStyle;rounded=0;orthogonalLoop=1;jettySize=auto;html=1;entryX=0;entryY=0.5;entryDx=0;entryDy=0;" edge="1" parent="1" source="nfJyVWnPt5pCBitvUno0-12" target="GvGXXPzVbGdxFzTRtFg9-14">
          <mxGeometry relative="1" as="geometry" />
        </mxCell>
        <mxCell id="nfJyVWnPt5pCBitvUno0-12" value="&lt;span style=&quot;font-weight: normal;&quot;&gt;crm_pro_info&lt;/span&gt;" style="rounded=1;whiteSpace=wrap;html=1;fillColor=#ffe6cc;strokeColor=#d79b00;fontStyle=1;fontSize=12;" parent="1" vertex="1">
          <mxGeometry x="235" y="300" width="120" height="30" as="geometry" />
        </mxCell>
        <mxCell id="GvGXXPzVbGdxFzTRtFg9-26" style="edgeStyle=orthogonalEdgeStyle;rounded=0;orthogonalLoop=1;jettySize=auto;html=1;entryX=0;entryY=0.5;entryDx=0;entryDy=0;" edge="1" parent="1" source="nfJyVWnPt5pCBitvUno0-13" target="GvGXXPzVbGdxFzTRtFg9-15">
          <mxGeometry relative="1" as="geometry" />
        </mxCell>
        <mxCell id="nfJyVWnPt5pCBitvUno0-13" value="&lt;span style=&quot;font-weight: normal;&quot;&gt;crm_sales_details&lt;/span&gt;" style="rounded=1;whiteSpace=wrap;html=1;fillColor=#ffe6cc;strokeColor=#d79b00;fontStyle=1;fontSize=12;" parent="1" vertex="1">
          <mxGeometry x="235" y="350" width="120" height="30" as="geometry" />
        </mxCell>
        <mxCell id="GvGXXPzVbGdxFzTRtFg9-27" style="edgeStyle=orthogonalEdgeStyle;rounded=0;orthogonalLoop=1;jettySize=auto;html=1;entryX=0;entryY=0.5;entryDx=0;entryDy=0;" edge="1" parent="1" source="nfJyVWnPt5pCBitvUno0-20" target="GvGXXPzVbGdxFzTRtFg9-16">
          <mxGeometry relative="1" as="geometry" />
        </mxCell>
        <mxCell id="nfJyVWnPt5pCBitvUno0-20" value="&lt;span style=&quot;font-weight: normal;&quot;&gt;erp_cust_az12&lt;/span&gt;" style="rounded=1;whiteSpace=wrap;html=1;fillColor=#ffe6cc;strokeColor=#d79b00;fontStyle=1;fontSize=12;" parent="1" vertex="1">
          <mxGeometry x="235" y="440" width="120" height="30" as="geometry" />
        </mxCell>
        <mxCell id="GvGXXPzVbGdxFzTRtFg9-28" style="edgeStyle=orthogonalEdgeStyle;rounded=0;orthogonalLoop=1;jettySize=auto;html=1;entryX=0;entryY=0.5;entryDx=0;entryDy=0;" edge="1" parent="1" source="nfJyVWnPt5pCBitvUno0-21" target="GvGXXPzVbGdxFzTRtFg9-17">
          <mxGeometry relative="1" as="geometry" />
        </mxCell>
        <mxCell id="nfJyVWnPt5pCBitvUno0-21" value="&lt;span style=&quot;font-weight: normal;&quot;&gt;erp_loc_a101&lt;/span&gt;" style="rounded=1;whiteSpace=wrap;html=1;fillColor=#ffe6cc;strokeColor=#d79b00;fontStyle=1;fontSize=12;" parent="1" vertex="1">
          <mxGeometry x="235" y="490" width="120" height="30" as="geometry" />
        </mxCell>
        <mxCell id="GvGXXPzVbGdxFzTRtFg9-30" value="" style="edgeStyle=orthogonalEdgeStyle;rounded=0;orthogonalLoop=1;jettySize=auto;html=1;" edge="1" parent="1" source="nfJyVWnPt5pCBitvUno0-22" target="GvGXXPzVbGdxFzTRtFg9-18">
          <mxGeometry relative="1" as="geometry" />
        </mxCell>
        <mxCell id="nfJyVWnPt5pCBitvUno0-22" value="&lt;span style=&quot;font-weight: normal;&quot;&gt;erp_px_cat_g1v2&lt;/span&gt;" style="rounded=1;whiteSpace=wrap;html=1;fillColor=#ffe6cc;strokeColor=#d79b00;fontStyle=1;fontSize=12;" parent="1" vertex="1">
          <mxGeometry x="235" y="540" width="120" height="30" as="geometry" />
        </mxCell>
        <mxCell id="nfJyVWnPt5pCBitvUno0-26" value="&lt;font style=&quot;font-size: 24px;&quot;&gt;&lt;b&gt;Data Flow Diagram&lt;/b&gt;&lt;/font&gt;" style="text;html=1;align=center;verticalAlign=middle;whiteSpace=wrap;rounded=0;" parent="1" vertex="1">
          <mxGeometry x="-60" y="20" width="310.81" height="30" as="geometry" />
        </mxCell>
        <mxCell id="GvGXXPzVbGdxFzTRtFg9-11" value="" style="rounded=0;whiteSpace=wrap;html=1;fillColor=none;strokeColor=#666666;fontColor=#333333;" vertex="1" parent="1">
          <mxGeometry x="415" y="220" width="150" height="400" as="geometry" />
        </mxCell>
        <mxCell id="GvGXXPzVbGdxFzTRtFg9-12" value="Bronze Layer" style="rounded=1;whiteSpace=wrap;html=1;fillColor=#f5f5f5;strokeColor=#666666;fontStyle=1;fontSize=14;fontColor=#333333;" vertex="1" parent="1">
          <mxGeometry x="415" y="180" width="150" height="30" as="geometry" />
        </mxCell>
        <mxCell id="GvGXXPzVbGdxFzTRtFg9-13" value="&lt;span style=&quot;font-weight: normal;&quot;&gt;crm_cust_info&lt;/span&gt;" style="rounded=1;whiteSpace=wrap;html=1;fillColor=#f5f5f5;strokeColor=#666666;fontStyle=1;fontSize=12;fontColor=#333333;" vertex="1" parent="1">
          <mxGeometry x="430" y="250" width="120" height="30" as="geometry" />
        </mxCell>
        <mxCell id="GvGXXPzVbGdxFzTRtFg9-14" value="&lt;span style=&quot;font-weight: normal;&quot;&gt;crm_pro_info&lt;/span&gt;" style="rounded=1;whiteSpace=wrap;html=1;fillColor=#f5f5f5;strokeColor=#666666;fontStyle=1;fontSize=12;fontColor=#333333;" vertex="1" parent="1">
          <mxGeometry x="430" y="299.67" width="120" height="30" as="geometry" />
        </mxCell>
        <mxCell id="GvGXXPzVbGdxFzTRtFg9-15" value="&lt;span style=&quot;font-weight: normal;&quot;&gt;crm_sales_details&lt;/span&gt;" style="rounded=1;whiteSpace=wrap;html=1;fillColor=#f5f5f5;strokeColor=#666666;fontStyle=1;fontSize=12;fontColor=#333333;" vertex="1" parent="1">
          <mxGeometry x="430" y="350" width="120" height="30" as="geometry" />
        </mxCell>
        <mxCell id="GvGXXPzVbGdxFzTRtFg9-16" value="&lt;span style=&quot;font-weight: normal;&quot;&gt;erp_cust_az12&lt;/span&gt;" style="rounded=1;whiteSpace=wrap;html=1;fillColor=#f5f5f5;strokeColor=#666666;fontStyle=1;fontSize=12;fontColor=#333333;" vertex="1" parent="1">
          <mxGeometry x="430" y="440" width="120" height="30" as="geometry" />
        </mxCell>
        <mxCell id="GvGXXPzVbGdxFzTRtFg9-17" value="&lt;span style=&quot;font-weight: normal;&quot;&gt;erp_loc_a101&lt;/span&gt;" style="rounded=1;whiteSpace=wrap;html=1;fillColor=#f5f5f5;strokeColor=#666666;fontStyle=1;fontSize=12;fontColor=#333333;" vertex="1" parent="1">
          <mxGeometry x="430" y="490" width="120" height="30" as="geometry" />
        </mxCell>
        <mxCell id="GvGXXPzVbGdxFzTRtFg9-18" value="&lt;span style=&quot;font-weight: normal;&quot;&gt;erp_px_cat_g1v2&lt;/span&gt;" style="rounded=1;whiteSpace=wrap;html=1;fillColor=#f5f5f5;strokeColor=#666666;fontStyle=1;fontSize=12;fontColor=#333333;" vertex="1" parent="1">
          <mxGeometry x="430" y="540" width="120" height="30" as="geometry" />
        </mxCell>
      </root>
    </mxGraphModel>
  </diagram>
</mxfile>
